<?xml version="1.0" encoding="utf-8"?>
<svg viewBox="0 0 2000 2000" xmlns="http://www.w3.org/2000/svg">
  <g id="Logo_artwork"/>
  <g id="Guides_to_delete">
    <g>
      <polygon points="352.732,1718.4 208.627,101.984 1791.373,101.984 1647.093,1718.528 999.615,1898.016 &#9;&#9;" style="fill: rgb(24, 24, 24);"/>
      <polygon points="1000,234.108 1000,1760.716 1523.565,1615.585 1646.918,234.108 &#9;&#9;" style="fill: rgb(83, 83, 83);"/>
      <polygon fill="#FFFFFF" points="503.468,432.378 556.906,1031.897 1244.048,1031.897 1220.988,1289.041 999.744,1348.857 &#10;&#9;&#9;&#9;778.919,1289.128 764.155,1124.017 565.155,1124.017 593.611,1442.302 999.697,1555.086 1406.296,1442.302 1460.806,833.669 &#10;&#9;&#9;&#9;738.229,833.669 720.086,630.648 1478.168,630.648 1478.773,630.648 1496.532,432.378 &#9;&#9;"/>
      <g>
        <polygon fill="#EBEBEB" points="1000,432.378 503.468,432.378 556.906,1031.897 1000,1031.897 1000,833.669 738.229,833.669 &#10;&#9;&#9;&#9;&#9;720.086,630.648 1000,630.648 &#9;&#9;&#9;"/>
        <polygon fill="#EBEBEB" points="1000,1348.771 999.744,1348.857 778.919,1289.128 764.155,1124.017 565.155,1124.017 &#10;&#9;&#9;&#9;&#9;593.611,1442.302 999.697,1555.086 1000,1555.001 &#9;&#9;&#9;"/>
      </g>
    </g>
  </g>
</svg>