<?xml version="1.0" encoding="utf-8"?>
<svg viewBox="0 0 166 155.3" xmlns="http://www.w3.org/2000/svg">
  <linearGradient id="a" gradientUnits="userSpaceOnUse" x1="27.5" y1="3" x2="152" y2="63.5">
    <stop offset="0.1" style="stop-color: rgb(228, 228, 228);"/>
    <stop offset="0.3" style="stop-color: rgb(255, 255, 255);"/>
    <stop offset="1" style="stop-color: rgb(228, 228, 228);"/>
  </linearGradient>
  <linearGradient id="b" gradientUnits="userSpaceOnUse" x1="95.8" y1="32.6" x2="74" y2="105.2">
    <stop offset="0" style="stop-color: rgb(213, 213, 213);"/>
    <stop offset="0.5" style="stop-color: rgb(71, 71, 71);"/>
    <stop offset="1" style="stop-color: rgb(97, 97, 97);"/>
  </linearGradient>
  <linearGradient id="c" gradientUnits="userSpaceOnUse" x1="18.4" y1="64.2" x2="144.3" y2="149.8">
    <stop offset="0" style="stop-color: rgb(50, 50, 50);"/>
    <stop offset="0.5" style="stop-color: rgb(73, 73, 73);"/>
    <stop offset="1" style="stop-color: rgb(50, 50, 50);"/>
  </linearGradient>
  <linearGradient id="d" gradientUnits="userSpaceOnUse" x1="75.2" y1="74.5" x2="24.4" y2="260.8" spreadMethod="pad">
    <stop offset="0" style="stop-color: rgb(68, 68, 68);"/>
    <stop offset="0.5" style="stop-color: rgb(21, 21, 21);"/>
    <stop offset="1" style="stop-color: rgb(6, 6, 6);"/>
  </linearGradient>
  <path d="M163 35S110-4 69 5l-3 1c-6 2-11 5-14 9l-2 3-15 26 26 5c11 7 25 10 38 7l46 9 18-30z" style=""/>
  <path d="M163 35S110-4 69 5l-3 1c-6 2-11 5-14 9l-2 3-15 26 26 5c11 7 25 10 38 7l46 9 18-30z" opacity=".3" fill="url(#a)"/>
  <path d="m52 35-4 1c-17 5-22 21-13 35 10 13 31 20 48 15l62-21S92 26 52 35z" style="fill: rgb(6, 6, 6);"/>
  <path d="m52 35-4 1c-17 5-22 21-13 35 10 13 31 20 48 15l62-21S92 26 52 35z" opacity=".3" fill="url(#b)"/>
  <path d="M134 80a45 45 0 0 0-48-15L24 85 4 120l112 19 20-36c4-7 3-15-2-23z" fill="url(#c)"/>
  <path d="M114 115a45 45 0 0 0-48-15L4 120s53 40 94 30l3-1c17-5 23-21 13-34z" fill="url(#d)" style=""/>
</svg>